%TF.GenerationSoftware,KiCad,Pcbnew,9.0.2*%
%TF.CreationDate,2025-06-20T04:28:53+05:30*%
%TF.ProjectId,HackSolder,4861636b-536f-46c6-9465-722e6b696361,rev?*%
%TF.SameCoordinates,Original*%
%TF.FileFunction,Soldermask,Bot*%
%TF.FilePolarity,Negative*%
%FSLAX46Y46*%
G04 Gerber Fmt 4.6, Leading zero omitted, Abs format (unit mm)*
G04 Created by KiCad (PCBNEW 9.0.2) date 2025-06-20 04:28:53*
%MOMM*%
%LPD*%
G01*
G04 APERTURE LIST*
%ADD10C,4.000000*%
%ADD11R,1.700000X1.700000*%
%ADD12C,1.700000*%
%ADD13C,1.600000*%
%ADD14C,2.000000*%
%ADD15O,1.050000X1.500000*%
%ADD16R,1.050000X1.500000*%
%ADD17C,1.800000*%
%ADD18R,1.800000X1.800000*%
%ADD19C,17.800000*%
%ADD20R,5.100000X5.100000*%
%TA.AperFunction,ComponentPad*%
%ADD21R,1.700000X1.700000*%
%TD*%
%TA.AperFunction,ComponentPad*%
%ADD22C,1.700000*%
%TD*%
%TA.AperFunction,ComponentPad*%
%ADD23C,1.600000*%
%TD*%
%TA.AperFunction,ComponentPad*%
%ADD24C,2.000000*%
%TD*%
%TA.AperFunction,ComponentPad*%
%ADD25O,1.050000X1.500000*%
%TD*%
%TA.AperFunction,ComponentPad*%
%ADD26R,1.050000X1.500000*%
%TD*%
%TA.AperFunction,ComponentPad*%
%ADD27C,1.800000*%
%TD*%
%TA.AperFunction,ComponentPad*%
%ADD28R,1.800000X1.800000*%
%TD*%
%TA.AperFunction,SMDPad,CuDef*%
%ADD29C,17.800000*%
%TD*%
%TA.AperFunction,SMDPad,CuDef*%
%ADD30R,5.100000X5.100000*%
%TD*%
%TA.AperFunction,ViaPad*%
%ADD31C,0.600000*%
%TD*%
%TA.AperFunction,Conductor*%
%ADD32C,0.200000*%
%TD*%
%ADD33C,0.150000*%
%ADD34C,0.120000*%
%ADD35C,0.200000*%
%ADD36C,0.100000*%
%TA.AperFunction,Profile*%
%ADD37C,0.050000*%
%TD*%
G04 APERTURE END LIST*
D10*
%TO.C,REF\u002A\u002A*%
X186715416Y-103092917D03*
%TD*%
D11*
%TO.C,M2*%
X135915416Y-108172917D03*
D12*
X138455416Y-108172917D03*
%TD*%
D13*
%TO.C,R1*%
X130025416Y-95472917D03*
X127025416Y-95472917D03*
%TD*%
D14*
%TO.C,SW2*%
X134355416Y-116352917D03*
X134355416Y-122852917D03*
X129855416Y-116352917D03*
X129855416Y-122852917D03*
%TD*%
D15*
%TO.C,Q1*%
X166395416Y-94202917D03*
X165125416Y-94202917D03*
D16*
X163855416Y-94202917D03*
%TD*%
D13*
%TO.C,R2*%
X147345416Y-119602917D03*
X154965416Y-119602917D03*
%TD*%
D17*
%TO.C,L1*%
X142265416Y-80232917D03*
D18*
X139725416Y-80232917D03*
%TD*%
D19*
%TO.C,BT1*%
X147345416Y-92932917D03*
D20*
X147345416Y-80132917D03*
X147345416Y-105732917D03*
%TD*%
D18*
%TO.C,D2*%
X153695416Y-82772917D03*
D17*
X156235416Y-82772917D03*
%TD*%
D13*
%TO.C,R3*%
X154965416Y-123412917D03*
X147345416Y-123412917D03*
%TD*%
D21*
%TO.P,M2,1,+*%
%TO.N,Net-(M2-+)*%
X135915416Y-108172917D03*
D22*
%TO.P,M2,2,-*%
%TO.N,GND*%
X138455416Y-108172917D03*
%TD*%
D23*
%TO.P,R1,2*%
%TO.N,Net-(Q1-B)*%
X130025416Y-95472917D03*
%TO.P,R1,1*%
%TO.N,Net-(BT1-+)*%
X127025416Y-95472917D03*
%TD*%
D24*
%TO.P,SW2,1,1*%
%TO.N,Net-(Q1-C)*%
X134355416Y-116352917D03*
X134355416Y-122852917D03*
%TO.P,SW2,2,2*%
%TO.N,Net-(M2-+)*%
X129855416Y-116352917D03*
X129855416Y-122852917D03*
%TD*%
D25*
%TO.P,Q1,3,E*%
%TO.N,Net-(Q1-E)*%
X166395416Y-94202917D03*
%TO.P,Q1,2,B*%
%TO.N,Net-(Q1-B)*%
X165125416Y-94202917D03*
D26*
%TO.P,Q1,1,C*%
%TO.N,Net-(Q1-C)*%
X163855416Y-94202917D03*
%TD*%
D23*
%TO.P,R2,2*%
%TO.N,GND*%
X147345416Y-119602917D03*
%TO.P,R2,1*%
%TO.N,Net-(Q1-B)*%
X154965416Y-119602917D03*
%TD*%
D27*
%TO.P,L1,2,A*%
%TO.N,Net-(D2-K)*%
X142265416Y-80232917D03*
D28*
%TO.P,L1,1,K*%
%TO.N,Net-(BT1-+)*%
X139725416Y-80232917D03*
%TD*%
D29*
%TO.P,BT1,2,-*%
%TO.N,GND*%
X147345416Y-92932917D03*
D30*
%TO.P,BT1,1,+*%
%TO.N,Net-(BT1-+)*%
X147345416Y-80132917D03*
X147345416Y-105732917D03*
%TD*%
D28*
%TO.P,D2,1,K*%
%TO.N,Net-(D2-K)*%
X153695416Y-82772917D03*
D27*
%TO.P,D2,2,A*%
%TO.N,Net-(D2-A)*%
X156235416Y-82772917D03*
%TD*%
D23*
%TO.P,R3,1*%
%TO.N,Net-(Q1-E)*%
X154965416Y-123412917D03*
%TO.P,R3,2*%
%TO.N,Net-(D2-A)*%
X147345416Y-123412917D03*
%TD*%
D31*
%TO.N,Net-(BT1-+)*%
X140945416Y-104462917D03*
%TO.N,GND*%
X137454416Y-91921617D03*
%TO.N,Net-(Q1-B)*%
X156475816Y-100198817D03*
%TD*%
D32*
%TO.N,GND*%
X147086716Y-91921617D02*
X147345416Y-91662917D01*
%TO.N,Net-(Q1-B)*%
X135477916Y-100925417D02*
X130025416Y-95472917D01*
%TO.N,Net-(BT1-+)*%
X139725416Y-80232917D02*
X140927116Y-80232917D01*
%TO.N,Net-(D2-K)*%
X152493716Y-82772917D02*
X152182016Y-82461217D01*
%TO.N,Net-(BT1-+)*%
X140945416Y-103880417D02*
X140945416Y-104462917D01*
X140927116Y-79857417D02*
X140927116Y-80232917D01*
X140945416Y-104462917D02*
X136015416Y-104462917D01*
%TO.N,GND*%
X137923616Y-92390817D02*
X137454416Y-91921617D01*
%TO.N,Net-(Q1-C)*%
X134355416Y-116352917D02*
X141172616Y-116352917D01*
X163028716Y-94496817D02*
X163028716Y-94202917D01*
X141172616Y-116352917D02*
X163028716Y-94496817D01*
%TO.N,Net-(BT1-+)*%
X147345416Y-104462917D02*
X140945416Y-104462917D01*
%TO.N,Net-(D2-K)*%
X144493716Y-82461217D02*
X142265416Y-80232917D01*
%TO.N,Net-(BT1-+)*%
X140945416Y-103880417D02*
X140945416Y-104462917D01*
%TO.N,Net-(D2-K)*%
X153695416Y-82772917D02*
X152493716Y-82772917D01*
X152182016Y-82461217D02*
X144493716Y-82461217D01*
%TO.N,Net-(Q1-C)*%
X163855416Y-94202917D02*
X163028716Y-94202917D01*
%TO.N,Net-(Q1-B)*%
X156475816Y-100198817D02*
X155749216Y-100925417D01*
X155749216Y-100925417D02*
X135477916Y-100925417D01*
%TO.N,Net-(BT1-+)*%
X136015416Y-104462917D02*
X127025416Y-95472917D01*
X147345416Y-78862917D02*
X141921616Y-78862917D01*
%TO.N,GND*%
X137454416Y-91921617D02*
X137923616Y-92390817D01*
%TO.N,Net-(BT1-+)*%
X141921616Y-78862917D02*
X140927116Y-79857417D01*
%TO.N,GND*%
X137454416Y-91921617D02*
X147086716Y-91921617D01*
%TD*%
D20*
%TO.C,BT1*%
X147345416Y-80132917D03*
X147345416Y-105732917D03*
%TD*%
D33*
X151322082Y-117687736D02*
X151655415Y-117211545D01*
X151893510Y-117687736D02*
X151893510Y-116687736D01*
X151893510Y-116687736D02*
X151512558Y-116687736D01*
X151512558Y-116687736D02*
X151417320Y-116735355D01*
X151417320Y-116735355D02*
X151369701Y-116782974D01*
X151369701Y-116782974D02*
X151322082Y-116878212D01*
X151322082Y-116878212D02*
X151322082Y-117021069D01*
X151322082Y-117021069D02*
X151369701Y-117116307D01*
X151369701Y-117116307D02*
X151417320Y-117163926D01*
X151417320Y-117163926D02*
X151512558Y-117211545D01*
X151512558Y-117211545D02*
X151893510Y-117211545D01*
X150941129Y-116782974D02*
X150893510Y-116735355D01*
X150893510Y-116735355D02*
X150798272Y-116687736D01*
X150798272Y-116687736D02*
X150560177Y-116687736D01*
X150560177Y-116687736D02*
X150464939Y-116735355D01*
X150464939Y-116735355D02*
X150417320Y-116782974D01*
X150417320Y-116782974D02*
X150369701Y-116878212D01*
X150369701Y-116878212D02*
X150369701Y-116973450D01*
X150369701Y-116973450D02*
X150417320Y-117116307D01*
X150417320Y-117116307D02*
X150988748Y-117687736D01*
X150988748Y-117687736D02*
X150369701Y-117687736D01*
X137576425Y-101297202D02*
X137624044Y-101440059D01*
X137624044Y-101440059D02*
X137671663Y-101487678D01*
X137671663Y-101487678D02*
X137766901Y-101535297D01*
X137766901Y-101535297D02*
X137909758Y-101535297D01*
X137909758Y-101535297D02*
X138004996Y-101487678D01*
X138004996Y-101487678D02*
X138052616Y-101440059D01*
X138052616Y-101440059D02*
X138100235Y-101344821D01*
X138100235Y-101344821D02*
X138100235Y-100963869D01*
X138100235Y-100963869D02*
X137100235Y-100963869D01*
X137100235Y-100963869D02*
X137100235Y-101297202D01*
X137100235Y-101297202D02*
X137147854Y-101392440D01*
X137147854Y-101392440D02*
X137195473Y-101440059D01*
X137195473Y-101440059D02*
X137290711Y-101487678D01*
X137290711Y-101487678D02*
X137385949Y-101487678D01*
X137385949Y-101487678D02*
X137481187Y-101440059D01*
X137481187Y-101440059D02*
X137528806Y-101392440D01*
X137528806Y-101392440D02*
X137576425Y-101297202D01*
X137576425Y-101297202D02*
X137576425Y-100963869D01*
X137100235Y-101821012D02*
X137100235Y-102392440D01*
X138100235Y-102106726D02*
X137100235Y-102106726D01*
X138100235Y-103249583D02*
X138100235Y-102678155D01*
X138100235Y-102963869D02*
X137100235Y-102963869D01*
X137100235Y-102963869D02*
X137243092Y-102868631D01*
X137243092Y-102868631D02*
X137338330Y-102773393D01*
X137338330Y-102773393D02*
X137385949Y-102678155D01*
X151322082Y-121497736D02*
X151655415Y-121021545D01*
X151893510Y-121497736D02*
X151893510Y-120497736D01*
X151893510Y-120497736D02*
X151512558Y-120497736D01*
X151512558Y-120497736D02*
X151417320Y-120545355D01*
X151417320Y-120545355D02*
X151369701Y-120592974D01*
X151369701Y-120592974D02*
X151322082Y-120688212D01*
X151322082Y-120688212D02*
X151322082Y-120831069D01*
X151322082Y-120831069D02*
X151369701Y-120926307D01*
X151369701Y-120926307D02*
X151417320Y-120973926D01*
X151417320Y-120973926D02*
X151512558Y-121021545D01*
X151512558Y-121021545D02*
X151893510Y-121021545D01*
X150988748Y-120497736D02*
X150369701Y-120497736D01*
X150369701Y-120497736D02*
X150703034Y-120878688D01*
X150703034Y-120878688D02*
X150560177Y-120878688D01*
X150560177Y-120878688D02*
X150464939Y-120926307D01*
X150464939Y-120926307D02*
X150417320Y-120973926D01*
X150417320Y-120973926D02*
X150369701Y-121069164D01*
X150369701Y-121069164D02*
X150369701Y-121307259D01*
X150369701Y-121307259D02*
X150417320Y-121402497D01*
X150417320Y-121402497D02*
X150464939Y-121450117D01*
X150464939Y-121450117D02*
X150560177Y-121497736D01*
X150560177Y-121497736D02*
X150845891Y-121497736D01*
X150845891Y-121497736D02*
X150941129Y-121450117D01*
X150941129Y-121450117D02*
X150988748Y-121402497D01*
D34*
%TO.C,R2*%
X147885416Y-120972917D02*
X147885416Y-120642917D01*
X147885416Y-118232917D02*
X147885416Y-118562917D01*
X154425416Y-120972917D02*
X147885416Y-120972917D01*
X154425416Y-120642917D02*
X154425416Y-120972917D01*
X154425416Y-118562917D02*
X154425416Y-118232917D01*
X154425416Y-118232917D02*
X147885416Y-118232917D01*
%TO.C,BT1*%
X156845416Y-89082917D02*
G75*
G02*
X156846880Y-96779302I-9500000J-3850000D01*
G01*
X144595416Y-77382917D02*
X150095416Y-77382917D01*
X150095416Y-77382917D02*
X150095416Y-82182917D01*
X144595416Y-82182917D02*
X144595416Y-77382917D01*
X156845416Y-82382917D02*
X156845416Y-89082917D01*
X136495416Y-88982917D02*
X141295416Y-82182917D01*
X136495416Y-96882917D02*
X136495416Y-88982917D01*
X156845416Y-103482917D02*
X156845416Y-96782917D01*
X150095416Y-103682917D02*
X150095416Y-108482917D01*
X141295416Y-103732917D02*
X136495416Y-96882917D01*
X144595416Y-108482917D02*
X144595416Y-103682917D01*
X150095416Y-108482917D02*
X144595416Y-108482917D01*
%TO.C,R3*%
X154425416Y-122042917D02*
X147885416Y-122042917D01*
X154425416Y-122372917D02*
X154425416Y-122042917D01*
X154425416Y-124452917D02*
X154425416Y-124782917D01*
X154425416Y-124782917D02*
X147885416Y-124782917D01*
X147885416Y-122042917D02*
X147885416Y-122372917D01*
X147885416Y-124782917D02*
X147885416Y-124452917D01*
%TD*%
D21*
%TO.P,M2,1,+*%
%TO.N,Net-(M2-+)*%
X135915416Y-108172917D03*
D22*
%TO.P,M2,2,-*%
%TO.N,GND*%
X138455416Y-108172917D03*
%TD*%
D23*
%TO.P,R1,2*%
%TO.N,Net-(Q1-B)*%
X130025416Y-95472917D03*
%TO.P,R1,1*%
%TO.N,Net-(BT1-+)*%
X127025416Y-95472917D03*
%TD*%
D24*
%TO.P,SW2,1,1*%
%TO.N,Net-(Q1-C)*%
X134355416Y-116352917D03*
X134355416Y-122852917D03*
%TO.P,SW2,2,2*%
%TO.N,Net-(M2-+)*%
X129855416Y-116352917D03*
X129855416Y-122852917D03*
%TD*%
D25*
%TO.P,Q1,3,E*%
%TO.N,Net-(Q1-E)*%
X166395416Y-94202917D03*
%TO.P,Q1,2,B*%
%TO.N,Net-(Q1-B)*%
X165125416Y-94202917D03*
D26*
%TO.P,Q1,1,C*%
%TO.N,Net-(Q1-C)*%
X163855416Y-94202917D03*
%TD*%
D23*
%TO.P,R2,2*%
%TO.N,GND*%
X147345416Y-119602917D03*
%TO.P,R2,1*%
%TO.N,Net-(Q1-B)*%
X154965416Y-119602917D03*
%TD*%
D27*
%TO.P,L1,2,A*%
%TO.N,Net-(D2-K)*%
X142265416Y-80232917D03*
D28*
%TO.P,L1,1,K*%
%TO.N,Net-(BT1-+)*%
X139725416Y-80232917D03*
%TD*%
%TO.P,D2,1,K*%
%TO.N,Net-(D2-K)*%
X153695416Y-82772917D03*
D27*
%TO.P,D2,2,A*%
%TO.N,Net-(D2-A)*%
X156235416Y-82772917D03*
%TD*%
D23*
%TO.P,R3,1*%
%TO.N,Net-(Q1-E)*%
X154965416Y-123412917D03*
%TO.P,R3,2*%
%TO.N,Net-(D2-A)*%
X147345416Y-123412917D03*
%TD*%
D31*
%TO.N,Net-(BT1-+)*%
X140945416Y-104462917D03*
%TO.N,GND*%
X137454416Y-91921617D03*
%TO.N,Net-(Q1-B)*%
X156475816Y-100198817D03*
%TD*%
D32*
%TO.N,Net-(Q1-B)*%
X156933816Y-100656817D02*
X156475816Y-100198817D01*
%TO.N,Net-(Q1-C)*%
X134355416Y-116352917D02*
X134355416Y-122852917D01*
%TO.N,Net-(BT1-+)*%
X139725416Y-80232917D02*
X139725416Y-102660417D01*
%TO.N,Net-(Q1-B)*%
X155918016Y-118650317D02*
X154965416Y-119602917D01*
%TO.N,Net-(M2-+)*%
X135915416Y-108172917D02*
X135915416Y-109324617D01*
%TO.N,GND*%
X137454416Y-91921617D02*
X137923616Y-92390817D01*
%TO.N,Net-(M2-+)*%
X135915416Y-109324617D02*
X129855416Y-115384617D01*
X129855416Y-115384617D02*
X129855416Y-116352917D01*
%TO.N,GND*%
X138455416Y-110712917D02*
X138455416Y-108172917D01*
%TO.N,Net-(Q1-B)*%
X165125416Y-95254617D02*
X162336016Y-95254617D01*
%TO.N,Net-(M2-+)*%
X129855416Y-116352917D02*
X129855416Y-122852917D01*
%TO.N,Net-(Q1-E)*%
X156319716Y-122058617D02*
X156319716Y-105635417D01*
%TO.N,GND*%
X137923616Y-92390817D02*
X137454416Y-91921617D01*
%TO.N,Net-(Q1-E)*%
X156319716Y-105635417D02*
X166395416Y-95559717D01*
%TO.N,Net-(D2-A)*%
X156235416Y-82772917D02*
X155516316Y-83492017D01*
%TO.N,Net-(Q1-E)*%
X166395416Y-95559717D02*
X166395416Y-94202917D01*
%TO.N,GND*%
X147345416Y-119602917D02*
X138455416Y-110712917D01*
X138455416Y-92922617D02*
X137454416Y-91921617D01*
%TO.N,Net-(D2-A)*%
X155516316Y-115242017D02*
X147345416Y-123412917D01*
%TO.N,Net-(Q1-E)*%
X154965416Y-123412917D02*
X156319716Y-122058617D01*
%TO.N,Net-(Q1-B)*%
X156933816Y-100656817D02*
X155918016Y-101672617D01*
%TO.N,Net-(BT1-+)*%
X140945416Y-103880417D02*
X140945416Y-104462917D01*
%TO.N,GND*%
X138455416Y-108172917D02*
X138455416Y-92922617D01*
%TO.N,Net-(Q1-B)*%
X162336016Y-95254617D02*
X156933816Y-100656817D01*
X155918016Y-101672617D02*
X155918016Y-118650317D01*
%TO.N,Net-(BT1-+)*%
X139725416Y-102660417D02*
X140945416Y-103880417D01*
%TO.N,Net-(D2-A)*%
X155516316Y-83492017D02*
X155516316Y-115242017D01*
%TO.N,Net-(Q1-B)*%
X165125416Y-94202917D02*
X165125416Y-95254617D01*
%TD*%
D10*
%TO.C,REF\u002A\u002A*%
X186715416Y-103092917D03*
%TD*%
D11*
%TO.C,M2*%
X135915416Y-108172917D03*
D12*
X138455416Y-108172917D03*
%TD*%
D13*
%TO.C,R1*%
X130025416Y-95472917D03*
X127025416Y-95472917D03*
%TD*%
D14*
%TO.C,SW2*%
X134355416Y-116352917D03*
X134355416Y-122852917D03*
X129855416Y-116352917D03*
X129855416Y-122852917D03*
%TD*%
D15*
%TO.C,Q1*%
X166395416Y-94202917D03*
X165125416Y-94202917D03*
D16*
X163855416Y-94202917D03*
%TD*%
D13*
%TO.C,R2*%
X147345416Y-119602917D03*
X154965416Y-119602917D03*
%TD*%
D17*
%TO.C,L1*%
X142265416Y-80232917D03*
D18*
X139725416Y-80232917D03*
%TD*%
%TO.C,D2*%
X153695416Y-82772917D03*
D17*
X156235416Y-82772917D03*
%TD*%
D13*
%TO.C,R3*%
X154965416Y-123412917D03*
X147345416Y-123412917D03*
%TD*%
D35*
X169781279Y-105255374D02*
X169781279Y-102255374D01*
X169781279Y-102255374D02*
X170924136Y-102255374D01*
X170924136Y-102255374D02*
X171209851Y-102398231D01*
X171209851Y-102398231D02*
X171352708Y-102541088D01*
X171352708Y-102541088D02*
X171495565Y-102826802D01*
X171495565Y-102826802D02*
X171495565Y-103255374D01*
X171495565Y-103255374D02*
X171352708Y-103541088D01*
X171352708Y-103541088D02*
X171209851Y-103683945D01*
X171209851Y-103683945D02*
X170924136Y-103826802D01*
X170924136Y-103826802D02*
X169781279Y-103826802D01*
X172781279Y-105255374D02*
X172781279Y-102255374D01*
X174209850Y-105255374D02*
X174209850Y-102255374D01*
X175924136Y-105255374D02*
X174638422Y-103541088D01*
X175924136Y-102255374D02*
X174209850Y-103969659D01*
X177066993Y-104398231D02*
X178495565Y-104398231D01*
X176781279Y-105255374D02*
X177781279Y-102255374D01*
X177781279Y-102255374D02*
X178781279Y-105255374D01*
D33*
X185382082Y-98597736D02*
X185048749Y-98121545D01*
X184810654Y-98597736D02*
X184810654Y-97597736D01*
X184810654Y-97597736D02*
X185191606Y-97597736D01*
X185191606Y-97597736D02*
X185286844Y-97645355D01*
X185286844Y-97645355D02*
X185334463Y-97692974D01*
X185334463Y-97692974D02*
X185382082Y-97788212D01*
X185382082Y-97788212D02*
X185382082Y-97931069D01*
X185382082Y-97931069D02*
X185334463Y-98026307D01*
X185334463Y-98026307D02*
X185286844Y-98073926D01*
X185286844Y-98073926D02*
X185191606Y-98121545D01*
X185191606Y-98121545D02*
X184810654Y-98121545D01*
X185810654Y-98073926D02*
X186143987Y-98073926D01*
X186286844Y-98597736D02*
X185810654Y-98597736D01*
X185810654Y-98597736D02*
X185810654Y-97597736D01*
X185810654Y-97597736D02*
X186286844Y-97597736D01*
X187048749Y-98073926D02*
X186715416Y-98073926D01*
X186715416Y-98597736D02*
X186715416Y-97597736D01*
X186715416Y-97597736D02*
X187191606Y-97597736D01*
X187715416Y-97597736D02*
X187715416Y-97835831D01*
X187477321Y-97740593D02*
X187715416Y-97835831D01*
X187715416Y-97835831D02*
X187953511Y-97740593D01*
X187572559Y-98026307D02*
X187715416Y-97835831D01*
X187715416Y-97835831D02*
X187858273Y-98026307D01*
X188477321Y-97597736D02*
X188477321Y-97835831D01*
X188239226Y-97740593D02*
X188477321Y-97835831D01*
X188477321Y-97835831D02*
X188715416Y-97740593D01*
X188334464Y-98026307D02*
X188477321Y-97835831D01*
X188477321Y-97835831D02*
X188620178Y-98026307D01*
X133990235Y-108982440D02*
X132990235Y-108982440D01*
X132990235Y-108982440D02*
X133704520Y-108649107D01*
X133704520Y-108649107D02*
X132990235Y-108315774D01*
X132990235Y-108315774D02*
X133990235Y-108315774D01*
X133085473Y-107887202D02*
X133037854Y-107839583D01*
X133037854Y-107839583D02*
X132990235Y-107744345D01*
X132990235Y-107744345D02*
X132990235Y-107506250D01*
X132990235Y-107506250D02*
X133037854Y-107411012D01*
X133037854Y-107411012D02*
X133085473Y-107363393D01*
X133085473Y-107363393D02*
X133180711Y-107315774D01*
X133180711Y-107315774D02*
X133275949Y-107315774D01*
X133275949Y-107315774D02*
X133418806Y-107363393D01*
X133418806Y-107363393D02*
X133990235Y-107934821D01*
X133990235Y-107934821D02*
X133990235Y-107315774D01*
X128358749Y-93027736D02*
X128025416Y-92551545D01*
X127787321Y-93027736D02*
X127787321Y-92027736D01*
X127787321Y-92027736D02*
X128168273Y-92027736D01*
X128168273Y-92027736D02*
X128263511Y-92075355D01*
X128263511Y-92075355D02*
X128311130Y-92122974D01*
X128311130Y-92122974D02*
X128358749Y-92218212D01*
X128358749Y-92218212D02*
X128358749Y-92361069D01*
X128358749Y-92361069D02*
X128311130Y-92456307D01*
X128311130Y-92456307D02*
X128263511Y-92503926D01*
X128263511Y-92503926D02*
X128168273Y-92551545D01*
X128168273Y-92551545D02*
X127787321Y-92551545D01*
X129311130Y-93027736D02*
X128739702Y-93027736D01*
X129025416Y-93027736D02*
X129025416Y-92027736D01*
X129025416Y-92027736D02*
X128930178Y-92170593D01*
X128930178Y-92170593D02*
X128834940Y-92265831D01*
X128834940Y-92265831D02*
X128739702Y-92313450D01*
X136762616Y-120936249D02*
X136810235Y-120793392D01*
X136810235Y-120793392D02*
X136810235Y-120555297D01*
X136810235Y-120555297D02*
X136762616Y-120460059D01*
X136762616Y-120460059D02*
X136714996Y-120412440D01*
X136714996Y-120412440D02*
X136619758Y-120364821D01*
X136619758Y-120364821D02*
X136524520Y-120364821D01*
X136524520Y-120364821D02*
X136429282Y-120412440D01*
X136429282Y-120412440D02*
X136381663Y-120460059D01*
X136381663Y-120460059D02*
X136334044Y-120555297D01*
X136334044Y-120555297D02*
X136286425Y-120745773D01*
X136286425Y-120745773D02*
X136238806Y-120841011D01*
X136238806Y-120841011D02*
X136191187Y-120888630D01*
X136191187Y-120888630D02*
X136095949Y-120936249D01*
X136095949Y-120936249D02*
X136000711Y-120936249D01*
X136000711Y-120936249D02*
X135905473Y-120888630D01*
X135905473Y-120888630D02*
X135857854Y-120841011D01*
X135857854Y-120841011D02*
X135810235Y-120745773D01*
X135810235Y-120745773D02*
X135810235Y-120507678D01*
X135810235Y-120507678D02*
X135857854Y-120364821D01*
X135810235Y-120031487D02*
X136810235Y-119793392D01*
X136810235Y-119793392D02*
X136095949Y-119602916D01*
X136095949Y-119602916D02*
X136810235Y-119412440D01*
X136810235Y-119412440D02*
X135810235Y-119174345D01*
X135905473Y-118841011D02*
X135857854Y-118793392D01*
X135857854Y-118793392D02*
X135810235Y-118698154D01*
X135810235Y-118698154D02*
X135810235Y-118460059D01*
X135810235Y-118460059D02*
X135857854Y-118364821D01*
X135857854Y-118364821D02*
X135905473Y-118317202D01*
X135905473Y-118317202D02*
X136000711Y-118269583D01*
X136000711Y-118269583D02*
X136095949Y-118269583D01*
X136095949Y-118269583D02*
X136238806Y-118317202D01*
X136238806Y-118317202D02*
X136810235Y-118888630D01*
X136810235Y-118888630D02*
X136810235Y-118269583D01*
X140828749Y-76727736D02*
X140352559Y-76727736D01*
X140352559Y-76727736D02*
X140352559Y-75727736D01*
X141685892Y-76727736D02*
X141114464Y-76727736D01*
X141400178Y-76727736D02*
X141400178Y-75727736D01*
X141400178Y-75727736D02*
X141304940Y-75870593D01*
X141304940Y-75870593D02*
X141209702Y-75965831D01*
X141209702Y-75965831D02*
X141114464Y-76013450D01*
X154227321Y-79267736D02*
X154227321Y-78267736D01*
X154227321Y-78267736D02*
X154465416Y-78267736D01*
X154465416Y-78267736D02*
X154608273Y-78315355D01*
X154608273Y-78315355D02*
X154703511Y-78410593D01*
X154703511Y-78410593D02*
X154751130Y-78505831D01*
X154751130Y-78505831D02*
X154798749Y-78696307D01*
X154798749Y-78696307D02*
X154798749Y-78839164D01*
X154798749Y-78839164D02*
X154751130Y-79029640D01*
X154751130Y-79029640D02*
X154703511Y-79124878D01*
X154703511Y-79124878D02*
X154608273Y-79220117D01*
X154608273Y-79220117D02*
X154465416Y-79267736D01*
X154465416Y-79267736D02*
X154227321Y-79267736D01*
X155179702Y-78362974D02*
X155227321Y-78315355D01*
X155227321Y-78315355D02*
X155322559Y-78267736D01*
X155322559Y-78267736D02*
X155560654Y-78267736D01*
X155560654Y-78267736D02*
X155655892Y-78315355D01*
X155655892Y-78315355D02*
X155703511Y-78362974D01*
X155703511Y-78362974D02*
X155751130Y-78458212D01*
X155751130Y-78458212D02*
X155751130Y-78553450D01*
X155751130Y-78553450D02*
X155703511Y-78696307D01*
X155703511Y-78696307D02*
X155132083Y-79267736D01*
X155132083Y-79267736D02*
X155751130Y-79267736D01*
D34*
%TO.C,M2*%
X134535416Y-109552917D02*
X134535416Y-108172917D01*
X135915416Y-109552917D02*
X134535416Y-109552917D01*
X137185416Y-109552917D02*
X139835416Y-109552917D01*
X137185416Y-109552917D02*
X137185416Y-106792917D01*
X139835416Y-109552917D02*
X139835416Y-106792917D01*
X137185416Y-106792917D02*
X139835416Y-106792917D01*
%TO.C,R1*%
X129925416Y-93372917D02*
G75*
G02*
X129911453Y-97582159I-1400000J-2100000D01*
G01*
X127125416Y-97572917D02*
G75*
G02*
X127139379Y-93363675I1400000J2100000D01*
G01*
X127125416Y-97572917D02*
X129925416Y-97572917D01*
X127125416Y-93372917D02*
X129925416Y-93372917D01*
%TO.C,SW2*%
X132855416Y-116102917D02*
X131355416Y-116102917D01*
X128855416Y-117352917D02*
X128855416Y-121852917D01*
X135355416Y-121852917D02*
X135355416Y-117352917D01*
X131355416Y-123102917D02*
X132855416Y-123102917D01*
%TO.C,Q1*%
X165125416Y-91602917D02*
G75*
G02*
X166963894Y-96041395I0J-2600000D01*
G01*
X163286938Y-96041395D02*
G75*
G02*
X165125416Y-91602916I1838478J1838478D01*
G01*
X163325416Y-96052917D02*
X166925416Y-96052917D01*
%TO.C,L1*%
X143495416Y-80232917D02*
G75*
G02*
X138495416Y-80232917I-2500000J0D01*
G01*
X138495416Y-80232917D02*
G75*
G02*
X143495416Y-80232917I2500000J0D01*
G01*
X143985416Y-80232917D02*
G75*
G02*
X138435416Y-81777747I-2990000J0D01*
G01*
X138435416Y-78688087D02*
G75*
G02*
X143985416Y-80232917I2560000J-1544830D01*
G01*
X138435416Y-78687917D02*
X138435416Y-81777917D01*
%TO.C,D2*%
X152405416Y-81227917D02*
X152405416Y-84317917D01*
X152405416Y-81228087D02*
G75*
G02*
X157955416Y-82772917I2560000J-1544830D01*
G01*
X157955416Y-82772917D02*
G75*
G02*
X152405416Y-84317747I-2990000J0D01*
G01*
X157465416Y-82772917D02*
G75*
G02*
X152465416Y-82772917I-2500000J0D01*
G01*
X152465416Y-82772917D02*
G75*
G02*
X157465416Y-82772917I2500000J0D01*
G01*
%TD*%
D36*
X150495000Y-90170000D02*
X153035000Y-90170000D01*
X144145000Y-96520000D02*
X144145000Y-91440000D01*
X153035000Y-90170000D02*
X151765000Y-92710000D01*
X144145000Y-91440000D02*
X151765000Y-92710000D01*
X142875000Y-88900000D02*
X147955000Y-88900000D01*
X149225000Y-96520000D02*
X147955000Y-97790000D01*
X144145000Y-91440000D02*
X142875000Y-88900000D01*
X147955000Y-97790000D02*
X146685000Y-99060000D01*
X151765000Y-92710000D02*
X150495000Y-93980000D01*
X146685000Y-99060000D02*
X144145000Y-96520000D01*
X147955000Y-88900000D02*
X150495000Y-90170000D01*
X150495000Y-93980000D02*
X149225000Y-96520000D01*
X146685000Y-93980000D02*
X146685000Y-96520000D01*
X150495000Y-90170000D02*
X153035000Y-90170000D01*
X151765000Y-92710000D01*
X150495000Y-93980000D01*
X149225000Y-96520000D01*
X146685000Y-99060000D01*
X144145000Y-96520000D01*
X144145000Y-91440000D01*
X142875000Y-88900000D01*
X147955000Y-88900000D01*
X150495000Y-90170000D01*
G36*
X150495000Y-90170000D02*
G01*
X153035000Y-90170000D01*
X151765000Y-92710000D01*
X150495000Y-93980000D01*
X149225000Y-96520000D01*
X146685000Y-99060000D01*
X144145000Y-96520000D01*
X144145000Y-91440000D01*
X142875000Y-88900000D01*
X147955000Y-88900000D01*
X150495000Y-90170000D01*
G37*
X160020000Y-88900000D02*
X158750000Y-88900000D01*
X157480000Y-86360000D01*
X158750000Y-82550000D01*
X161290000Y-82550000D01*
X160020000Y-88900000D01*
G36*
X160020000Y-88900000D02*
G01*
X158750000Y-88900000D01*
X157480000Y-86360000D01*
X158750000Y-82550000D01*
X161290000Y-82550000D01*
X160020000Y-88900000D01*
G37*
X135890000Y-85090000D02*
X134620000Y-86360000D01*
X133350000Y-86360000D01*
X132080000Y-83820000D01*
X134620000Y-80010000D01*
X135890000Y-80010000D01*
X135890000Y-85090000D01*
G36*
X135890000Y-85090000D02*
G01*
X134620000Y-86360000D01*
X133350000Y-86360000D01*
X132080000Y-83820000D01*
X134620000Y-80010000D01*
X135890000Y-80010000D01*
X135890000Y-85090000D01*
G37*
D37*
X123635416Y-63292917D02*
X121635416Y-60792917D01*
X127135416Y-99292917D02*
X122635416Y-93792917D01*
X144635416Y-126292917D02*
X142135416Y-125292917D01*
X135135416Y-94792917D02*
X134635416Y-92792917D01*
X123635416Y-128292917D02*
X122135416Y-126792917D01*
X166635416Y-88292917D02*
X169635416Y-88792917D01*
X164695416Y-48672917D02*
X166595416Y-56802917D01*
X130635416Y-103792917D02*
X131135416Y-102292917D01*
X131635416Y-60792917D02*
X138135416Y-65292917D01*
X161135416Y-85792917D02*
X160635416Y-90292917D01*
X132635416Y-82292917D02*
X134635416Y-79792917D01*
X165635416Y-70792917D02*
X166595416Y-63112917D01*
X160135416Y-64792917D02*
X161635416Y-57792917D01*
X152635416Y-127792917D02*
X150635416Y-126792917D01*
X124635416Y-124792917D02*
X128135416Y-124792917D01*
X125135416Y-118292917D02*
X126635416Y-115792917D01*
X163135416Y-108292917D02*
X165135416Y-99792917D01*
X136135416Y-75292917D02*
X138135416Y-72792917D01*
X160135416Y-125792917D02*
X161515416Y-127922917D01*
X120135416Y-89292917D02*
X121135416Y-89792917D01*
X162635416Y-101292917D02*
X159635416Y-103792917D01*
X170135416Y-90292917D02*
X171135416Y-91292917D01*
X169135416Y-94292917D02*
X166635416Y-96792917D01*
X127635416Y-127292917D02*
X123635416Y-128292917D01*
X166595416Y-63112917D02*
X166595416Y-56802917D01*
X158975416Y-129192917D02*
X155165416Y-129192917D01*
X159135416Y-115292917D02*
X159135416Y-108292917D01*
X134635416Y-79792917D02*
X135135416Y-77292917D01*
X121135416Y-89792917D02*
X122135416Y-88292917D01*
X171135416Y-91292917D02*
X170635416Y-92292917D01*
X125135416Y-89292917D02*
X126635416Y-88292917D01*
X126635416Y-88292917D02*
X126635416Y-90792917D01*
X161515416Y-127922917D02*
X158975416Y-129192917D01*
X122635416Y-93792917D02*
X120135416Y-91292917D01*
X156635416Y-109792917D02*
X156635416Y-115292917D01*
X152635416Y-127792917D02*
X155165416Y-129192917D01*
X161635416Y-57792917D02*
X164695416Y-48672917D01*
X170635416Y-92292917D02*
X171135416Y-93292917D01*
X126635416Y-90792917D02*
X135135416Y-94792917D01*
X156635416Y-126292917D02*
X160135416Y-125792917D01*
X142635416Y-69292917D02*
G75*
G02*
X158750000Y-73660000I3499999J-19000004D01*
G01*
X161635416Y-118792917D02*
X158635416Y-118792917D01*
X138135416Y-65292917D02*
X142635416Y-69292918D01*
X171635416Y-108792917D02*
X167135416Y-115292917D01*
X164635416Y-99292917D02*
X162635416Y-101292917D01*
X193135416Y-100792917D02*
X181635416Y-115792917D01*
X136108044Y-71779231D02*
X138135416Y-72792917D01*
X142135416Y-125292917D02*
X135135416Y-126042917D01*
X131635416Y-68792917D02*
X126135416Y-65792917D01*
X170635416Y-95292917D02*
X193135416Y-100792917D01*
X166635416Y-96792917D02*
X164635416Y-99292917D01*
X126635416Y-115792917D02*
X130635416Y-103792917D01*
X136108044Y-71779231D02*
X131635416Y-68792917D01*
X123135416Y-89292917D02*
X124135416Y-88292917D01*
X132635416Y-127292917D02*
X127635416Y-127292917D01*
X159635416Y-103792917D02*
X156635416Y-105792917D01*
X128135416Y-124792917D02*
X125135416Y-121792917D01*
X156635416Y-105792917D02*
X156635416Y-109792917D01*
X126135416Y-65792917D02*
X123635416Y-63292917D01*
X156635416Y-115292917D02*
X159135416Y-115292917D01*
X120135416Y-91292917D02*
X120135416Y-89292917D01*
X159135416Y-108292917D02*
X163135416Y-108292917D01*
X133635416Y-91292917D02*
X134635416Y-92792917D01*
X136135416Y-75292917D02*
X135135416Y-77292917D01*
X169635416Y-90292917D02*
X170135416Y-90292917D01*
X169635416Y-88792917D02*
X169635416Y-90292917D01*
X162135416Y-81292917D02*
X161135416Y-85792917D01*
X167135416Y-115292917D02*
X164635416Y-113292917D01*
X158635416Y-118792917D02*
X158635416Y-123292917D01*
X150635416Y-126792917D02*
X148135416Y-126292917D01*
X148135416Y-126292917D02*
X144635416Y-126292917D01*
X122135416Y-126792917D02*
X124635416Y-124792917D01*
X165135416Y-99792917D02*
X170635416Y-95292917D01*
X125135416Y-121792917D02*
X125135416Y-118292917D01*
X170635416Y-94292917D02*
X169135416Y-94292917D01*
X131135416Y-102292917D02*
X127135416Y-99292917D01*
X164635416Y-113292917D02*
X161635416Y-118792917D01*
X158635416Y-123292917D02*
X157135416Y-125292917D01*
X160635416Y-90292917D02*
X166635416Y-88292917D01*
X131635416Y-83792917D02*
X132135416Y-86292917D01*
X157135416Y-125292917D02*
X156635416Y-126292917D01*
X181635416Y-115792917D02*
X171635416Y-108792917D01*
X122135416Y-88292917D02*
X123135416Y-89292917D01*
X162635416Y-78292917D02*
X162135416Y-81292917D01*
X165635416Y-70792917D02*
X162635416Y-78292917D01*
X124135416Y-88292917D02*
X125135416Y-89292917D01*
X135135416Y-126042917D02*
X132635416Y-127292917D01*
X171135416Y-93292917D02*
X170135416Y-93792917D01*
X131635416Y-83792917D02*
X132635416Y-82292917D01*
X170135416Y-93792917D02*
X170635416Y-94292917D01*
X132635416Y-88792917D02*
X133635416Y-91292917D01*
X160135416Y-64792917D02*
X158750000Y-73660000D01*
X132635416Y-88792917D02*
X132135416Y-86292917D01*
X121635416Y-60792917D02*
X118635416Y-57792917D01*
X118635416Y-57792917D02*
X131635416Y-60792917D01*
M02*
